<?xml version="1.0" encoding="iso-8859-1"?>
<!-- Generator: Adobe Illustrator 19.0.0, SVG Export Plug-In . SVG Version: 6.00 Build 0)  -->
<svg version="1.1" id="Layer_1" xmlns="http://www.w3.org/2000/svg" xmlns:xlink="http://www.w3.org/1999/xlink" x="0px" y="0px"
	 viewBox="0 0 455 455" style="enable-background:new 0 0 455 455;" xml:space="preserve">
<g>
	<path d="M323.333,0v455H455V0H323.333z M374.167,55.833h30v155.82h-30V55.833z M389.167,404.167c-13.807,0-25-11.193-25-25
		c0-13.807,11.193-25,25-25s25,11.193,25,25C414.167,392.974,402.974,404.167,389.167,404.167z"/>
	<path d="M161.667,455h131.666V0H161.667V455z M212.5,55.833h30v155.82h-30V55.833z M227.5,354.167c13.807,0,25,11.193,25,25
		c0,13.807-11.193,25-25,25s-25-11.193-25-25C202.5,365.36,213.693,354.167,227.5,354.167z"/>
	<path d="M0,455h131.667V0H0V455z M50.833,55.833h30v155.82h-30V55.833z M65.833,354.167c13.807,0,25,11.193,25,25
		c0,13.807-11.193,25-25,25s-25-11.193-25-25C40.833,365.36,52.026,354.167,65.833,354.167z"/>
</g>
<g>
</g>
<g>
</g>
<g>
</g>
<g>
</g>
<g>
</g>
<g>
</g>
<g>
</g>
<g>
</g>
<g>
</g>
<g>
</g>
<g>
</g>
<g>
</g>
<g>
</g>
<g>
</g>
<g>
</g>
</svg>
