<?xml version="1.0" encoding="iso-8859-1"?>
<!-- Generator: Adobe Illustrator 19.0.0, SVG Export Plug-In . SVG Version: 6.00 Build 0)  -->
<svg version="1.1" id="Capa_1" xmlns="http://www.w3.org/2000/svg" xmlns:xlink="http://www.w3.org/1999/xlink" x="0px" y="0px"
	 viewBox="0 0 488.6 488.6" style="enable-background:new 0 0 488.6 488.6;" xml:space="preserve">
<g>
	<path d="M115,363.836v80.1c0,7.4,9,11.1,14.2,5.9l77.3-77.3h114c92.8,0,168.1-75.3,168.1-168.1s-75.2-168.1-168.1-168.1H168.1
		c-92.9,0-168.1,75.3-168.1,168.1C0,278.736,48.2,341.636,115,363.836z M138.6,145.736c0-8.4,6.8-15.1,15.1-15.1h188.8
		c8.4,0,15.1,6.8,15.1,15.1l0,0c0,8.4-6.8,15.1-15.1,15.1H153.8C145.4,160.936,138.6,154.136,138.6,145.736L138.6,145.736z
		 M138.6,204.336c0-8.4,6.8-15.1,15.1-15.1h188.8c8.4,0,15.1,6.8,15.1,15.1l0,0c0,8.4-6.8,15.1-15.1,15.1H153.8
		C145.4,219.536,138.6,212.736,138.6,204.336L138.6,204.336z M153.8,247.836h188.8c8.4,0,15.1,6.8,15.1,15.1
		c0,8.4-6.8,15.1-15.1,15.1H153.8c-8.4,0-15.1-6.8-15.1-15.1C138.6,254.636,145.4,247.836,153.8,247.836z"/>
</g>
<g>
</g>
<g>
</g>
<g>
</g>
<g>
</g>
<g>
</g>
<g>
</g>
<g>
</g>
<g>
</g>
<g>
</g>
<g>
</g>
<g>
</g>
<g>
</g>
<g>
</g>
<g>
</g>
<g>
</g>
</svg>
