<?xml version="1.0" encoding="UTF-8" standalone="no"?>
<!-- Generator: Adobe Illustrator 19.0.0, SVG Export Plug-In . SVG Version: 6.00 Build 0)  -->

<svg
   version="1.1"
   id="Layer_1"
   x="0px"
   y="0px"
   viewBox="0 0 330 330"
   style="enable-background:new 0 0 330 330;"
   xml:space="preserve"
   sodipodi:docname="unlock-svgrepo-com-modified.svg"
   inkscape:version="1.2 (dc2aeda, 2022-05-15)"
   xmlns:inkscape="http://www.inkscape.org/namespaces/inkscape"
   xmlns:sodipodi="http://sodipodi.sourceforge.net/DTD/sodipodi-0.dtd"
   xmlns="http://www.w3.org/2000/svg"
   xmlns:svg="http://www.w3.org/2000/svg"><defs
   id="defs44" /><sodipodi:namedview
   id="namedview42"
   pagecolor="#ffffff"
   bordercolor="#999999"
   borderopacity="1"
   inkscape:showpageshadow="0"
   inkscape:pageopacity="0"
   inkscape:pagecheckerboard="0"
   inkscape:deskcolor="#d1d1d1"
   showgrid="false"
   inkscape:zoom="0.56127968"
   inkscape:cx="-240.5218"
   inkscape:cy="78.392291"
   inkscape:window-width="762"
   inkscape:window-height="480"
   inkscape:window-x="49"
   inkscape:window-y="25"
   inkscape:window-maximized="0"
   inkscape:current-layer="XMLID_518_" />
<g
   id="XMLID_518_">
	<path
   id="XMLID_519_"
   d="M 165,0 C 118.13105,0 80.001953,38.131047 80.001953,85 v 45 H 65 c -8.283992,0 -15,6.71601 -15,15 v 170 c 0,8.28399 6.716008,15 15,15 h 200 c 8.28399,0 15,-6.71601 15,-15 V 145 c 0,-8.28399 -6.71601,-15 -15,-15 H 110.00195 V 85 c 0,-30.32697 24.67208,-55 54.99805,-55 30.32697,0 55,24.67303 55,55 1.5937,23.37472 27.5469,27.29969 30,0 C 250,38.131047 211.86895,0 165,0 Z"
   sodipodi:nodetypes="sscsssssssccssccs" />
</g>
<g
   id="g11">
</g>
<g
   id="g13">
</g>
<g
   id="g15">
</g>
<g
   id="g17">
</g>
<g
   id="g19">
</g>
<g
   id="g21">
</g>
<g
   id="g23">
</g>
<g
   id="g25">
</g>
<g
   id="g27">
</g>
<g
   id="g29">
</g>
<g
   id="g31">
</g>
<g
   id="g33">
</g>
<g
   id="g35">
</g>
<g
   id="g37">
</g>
<g
   id="g39">
</g>
</svg>
