<?xml version="1.0" encoding="iso-8859-1"?>
<!-- Generator: Adobe Illustrator 19.0.0, SVG Export Plug-In . SVG Version: 6.00 Build 0)  -->
<svg version="1.1" id="Layer_1" xmlns="http://www.w3.org/2000/svg" xmlns:xlink="http://www.w3.org/1999/xlink" x="0px" y="0px"
	 viewBox="0 0 512 512" style="enable-background:new 0 0 512 512;" xml:space="preserve">
<g>
	<g>
		<path d="M489.412,112.94h-67.765v22.588v22.588v137.537c0,37.365-30.398,67.765-67.765,67.765H213.611l-21.512,15.059
			l-32.27,22.588l-19.617,13.732c4.129,5.376,10.603,8.856,17.906,8.856H312.63l109.618,76.734
			c3.869,2.708,8.401,4.084,12.955,4.084c3.567,0,7.148-0.843,10.43-2.552c7.469-3.891,12.156-11.613,12.156-20.036v-58.229h31.624
			c12.475,0,22.588-10.112,22.588-22.588V135.528C512,123.053,501.886,112.94,489.412,112.94z"/>
	</g>
</g>
<g>
	<g>
		<path d="M353.882,7.529H22.588C10.114,7.529,0,17.641,0,30.118v265.535c0,12.476,10.114,22.588,22.588,22.588h31.624v58.229
			c0,8.422,4.686,16.145,12.157,20.036c3.281,1.709,6.862,2.552,10.43,2.552c4.552,0,9.086-1.376,12.955-4.084l45.776-32.044
			l22.588-15.812l22.588-15.812l18.665-13.067h154.511c12.475,0,22.588-10.112,22.588-22.588V158.116v-22.588V112.94V30.118
			C376.471,17.641,366.357,7.529,353.882,7.529z M263.529,233.412h-13.779H112.941c-12.475,0-22.588-10.115-22.588-22.588
			c0-12.476,10.113-22.588,22.588-22.588h150.588c9.047,0,16.831,5.332,20.436,13.014c1.366,2.911,2.152,6.147,2.152,9.574
			C286.118,223.297,276.004,233.412,263.529,233.412z M263.529,143.057H112.941c-12.475,0-22.588-10.114-22.588-22.588
			c0-12.475,10.113-22.588,22.588-22.588h150.588c12.475,0,22.588,10.114,22.588,22.588
			C286.118,132.944,276.004,143.057,263.529,143.057z"/>
	</g>
</g>
<g>
</g>
<g>
</g>
<g>
</g>
<g>
</g>
<g>
</g>
<g>
</g>
<g>
</g>
<g>
</g>
<g>
</g>
<g>
</g>
<g>
</g>
<g>
</g>
<g>
</g>
<g>
</g>
<g>
</g>
</svg>
