<?xml version="1.0" encoding="UTF-8" standalone="no"?>
<!-- Generator: Adobe Illustrator 18.1.1, SVG Export Plug-In . SVG Version: 6.00 Build 0)  -->

<svg
   version="1.1"
   id="Capa_1"
   x="0px"
   y="0px"
   viewBox="0 0 47.122351 45.146597"
   xml:space="preserve"
   sodipodi:docname="star-empty.svg"
   width="47.122349"
   height="45.146595"
   inkscape:version="1.2 (dc2aeda, 2022-05-15)"
   xmlns:inkscape="http://www.inkscape.org/namespaces/inkscape"
   xmlns:sodipodi="http://sodipodi.sourceforge.net/DTD/sodipodi-0.dtd"
   xmlns="http://www.w3.org/2000/svg"
   xmlns:svg="http://www.w3.org/2000/svg"><defs
   id="defs3913" /><sodipodi:namedview
   id="namedview3911"
   pagecolor="#ffffff"
   bordercolor="#999999"
   borderopacity="1"
   inkscape:showpageshadow="0"
   inkscape:pageopacity="0"
   inkscape:pagecheckerboard="0"
   inkscape:deskcolor="#d1d1d1"
   showgrid="false"
   inkscape:zoom="1"
   inkscape:cx="-175.5"
   inkscape:cy="44"
   inkscape:window-width="1792"
   inkscape:window-height="1120"
   inkscape:window-x="0"
   inkscape:window-y="0"
   inkscape:window-maximized="0"
   inkscape:current-layer="g3878" />
<g
   id="g3878"
   transform="translate(1.9977615,1.0125)">
	<path
   style="fill:none;fill-opacity:1;stroke:#ffc92e;stroke-width:3;stroke-dasharray:none;stroke-opacity:1"
   d="M 39.199,15.197 H 27.668 L 24.105,4.232 c -1.404,-4.326 -3.68,-4.326 -5.084,0 L 15.458,15.197 H 3.928 c -4.545,0 -5.25,2.164 -1.571,4.836 l 9.326,6.775 -3.562,10.967 c -1.404,4.322 0.438,5.662 4.116,2.988 l 9.326,-6.775 9.328,6.775 c 3.678,2.674 5.52,1.334 4.116,-2.988 l -3.564,-10.967 9.326,-6.775 c 3.68,-2.672 2.975,-4.836 -1.57,-4.836 z"
   id="path3876" />
</g>
<g
   id="g3880"
   transform="translate(1.9977615,1.0125)">
</g>
<g
   id="g3882"
   transform="translate(1.9977615,1.0125)">
</g>
<g
   id="g3884"
   transform="translate(1.9977615,1.0125)">
</g>
<g
   id="g3886"
   transform="translate(1.9977615,1.0125)">
</g>
<g
   id="g3888"
   transform="translate(1.9977615,1.0125)">
</g>
<g
   id="g3890"
   transform="translate(1.9977615,1.0125)">
</g>
<g
   id="g3892"
   transform="translate(1.9977615,1.0125)">
</g>
<g
   id="g3894"
   transform="translate(1.9977615,1.0125)">
</g>
<g
   id="g3896"
   transform="translate(1.9977615,1.0125)">
</g>
<g
   id="g3898"
   transform="translate(1.9977615,1.0125)">
</g>
<g
   id="g3900"
   transform="translate(1.9977615,1.0125)">
</g>
<g
   id="g3902"
   transform="translate(1.9977615,1.0125)">
</g>
<g
   id="g3904"
   transform="translate(1.9977615,1.0125)">
</g>
<g
   id="g3906"
   transform="translate(1.9977615,1.0125)">
</g>
<g
   id="g3908"
   transform="translate(1.9977615,1.0125)">
</g>
</svg>
